<svg viewBox="0 0 400 300" fill="none" xmlns="http://www.w3.org/2000/svg"><mask id="a" style="mask-type:alpha" maskUnits="userSpaceOnUse" x="24" y="25" width="352" height="250"><path d="M375.8 25H24v249.8h351.8V25Z" fill="#fff"/></mask><g mask="url(#a)"><path d="M329.1 95.1c0 4 1.3 7.7 3.5 10.7-1.3 3.2-3.9 8.3-6.8 9.1 0 0 7.8 1 13.7-3.4 2.3 1.1 5 1.7 7.7 1.7 10 0 18.2-8.1 18.2-18.2s-8.1-18.1-18.1-18.1c-10 0-18.2 8.1-18.2 18.2Z" stroke="#142D6E" stroke-width="2"/><path fill-rule="evenodd" clip-rule="evenodd" d="M130.6 52.7v7.6h-1.4c-.5 0-.9-.1-1.2-.4-.2-.2-.3-.3-.3-.5-.1-.2-.1-.5-.1-1v-5.7H125v6.1c0 1.1.3 2 .9 2.6.3.3.6.6 1.1.7.5.1 1.1.2 2 .2h9.6v-9.6H136v7.5h-2.8v-7.5h-2.6ZM143.1 52.9c-.6.3-1.1.7-1.5 1.3-.6.8-.9 1.8-.9 3 0 1.8.5 3.1 1.7 4 .4.3.8.6 1.3.7.5.1 1.1.2 1.9.2h3.5v-2h-3.2c-.8 0-1.3-.1-1.7-.4-.3-.2-.5-.7-.6-1.3h5.5v-2.2h-5.5c0-.6.2-1.1.5-1.3.3-.3.8-.4 1.5-.4h3.5v-2h-3.7c-.9 0-1.7.2-2.3.4ZM153.8 49.1h-2.6v13.1h2.6V49.1ZM157.1 60.7c.4.5.9.8 1.5 1 .6.2 1.3.3 2.3.3h3.6v-2h-2.8c-.6 0-1 0-1.3-.1-.4-.1-.6-.2-.9-.4-.7-.4-1-1.2-1-2.2 0-.9.2-1.6.6-2 .4-.5 1.1-.7 2.2-.7h3.1v-2.1h-3.5c-.8 0-1.6.1-2.1.2s-1 .4-1.4.7c-1 .8-1.5 2.1-1.5 3.8 0 1.4.4 2.6 1.2 3.5ZM166.8 54c-.8.9-1.2 2-1.2 3.3 0 1.6.5 2.8 1.3 3.6 1 .9 2.2 1.4 3.8 1.4 1.6 0 2.8-.4 3.7-1.2 1-.9 1.5-2.1 1.5-3.6 0-1.4-.4-2.6-1.2-3.5-.8-1-2.1-1.5-3.9-1.5-1.6 0-2.9.5-4 1.5Zm1.7 3.4c0 .8.1 1.4.4 1.8.4.7 1.1 1.1 2 1.1 1.6 0 2.3-1 2.3-2.9s-.8-2.9-2.3-2.9c-1.6 0-2.4 1-2.4 2.9ZM220.5 52.6v9.5h2.6v-7.5h2.8v7.5h2.6v-7.5h1.4c.5 0 .9.1 1.2.4.2.2.3.3.3.5.1.2.1.5.1 1v5.7h2.6v-6.1c0-1.1-.3-2-.9-2.6-.4-.3-.7-.6-1.2-.7-.5-.1-1.1-.2-2-.2h-9.7.2ZM236.7 54.2c-.6.8-.9 1.8-.9 3 0 1.8.5 3.1 1.7 4 .4.3.8.6 1.3.7.5.1 1.1.2 1.9.2h3.5v-2H241c-.8 0-1.3-.1-1.7-.4-.3-.2-.5-.7-.6-1.3h5.5v-2.2h-5.5c0-.6.2-1.1.5-1.3.3-.3.8-.4 1.5-.4h3.5v-2h-3.7c-.9 0-1.7.2-2.3.4-.6.3-1.1.7-1.5 1.3Z" fill="#00D6B9"/><path fill-rule="evenodd" clip-rule="evenodd" d="m103.9 62.4 1.7-2-2.8-2.8-2 1.7c-1.2-.8-2.7-1.4-4.2-1.7l-.2-2.8h-3.9l-.2 2.9c-1.5.3-2.9.9-4.1 1.7l-2.2-2-2.8 2.8 1.9 2.2c-.8 1.2-1.4 2.5-1.8 4l-3 .2v3.9l2.9.2c.2 1.5.8 2.9 1.6 4.2l-1.9 2.2 2.8 2.8 2.1-1.8c1.2.9 2.6 1.6 4.2 1.9l.2 2.7h3.9l.2-2.6c1.6-.2 3.1-.8 4.4-1.7l2 1.7 2.8-2.8-1.6-1.9c.9-1.3 1.6-2.8 1.9-4.4l2.4-.1V67l-2.5-.2c-.3-1.6-.9-3.1-1.8-4.4Zm-9.4 1.197c-2.9 0-5.3 2.4-5.3 5.3s2.4 5.3 5.3 5.3 5.3-2.4 5.3-5.3c0-3-2.4-5.4-5.3-5.3ZM253.6 233.5v7l5.1.4c.4 2.7 1.4 5.2 2.8 7.4l-3.4 3.9 4.9 4.9 3.7-3.2c2.2 1.6 4.7 2.8 7.5 3.4l.4 4.8h7l.4-4.6c2.9-.4 5.6-1.5 7.9-3l3.5 3 4.9-4.9-2.9-3.3c1.6-2.3 2.8-5 3.4-7.8l4.6-.2v-7l-4.5-.4c-.5-2.8-1.6-5.5-3.2-7.8l3.1-3.6-4.9-4.9-3.6 3.1c-2.2-1.5-4.8-2.6-7.5-3.1l-.4-5.1h-7l-.4 5.1c-2.6.5-5.1 1.5-7.3 3l-4.1-3.5-4.9 4.9 3.4 4c-1.5 2.1-2.5 4.5-3.1 7.1l-5.4.4Zm25.3-5.4c-5.2 0-9.5 4.3-9.5 9.5s4.2 9.5 9.5 9.5c5.2 0 9.5-4.2 9.5-9.5 0-5.2-4.3-9.5-9.5-9.5Z" fill="#EBEBEB"/><path fill-rule="evenodd" clip-rule="evenodd" d="M350.3 231c0-7-5.7-12.7-12.7-12.7-7 0-12.7 5.7-12.7 12.7 0 7 5.7 12.7 12.7 12.7 6.9 0 12.7-5.7 12.7-12.7Zm-22.4.1c0 5.4 4.3 9.7 9.7 9.7 5.3 0 9.7-4.3 9.7-9.7 0-5.4-4.4-9.7-9.7-9.7-5.3 0-9.7 4.3-9.7 9.7Z" fill="#03D5B7"/><path fill-rule="evenodd" clip-rule="evenodd" d="M94.603 107.802c-.5 2-.2 4 .8 5.8 1.1 1.7 2.7 3 4.7 3.5.6.1 1.3.2 1.9.2 1.3 0 2.7-.3 3.9-1 1.7-1.1 3-2.7 3.5-4.7s.2-4-.8-5.8c-1.1-1.7-2.7-3-4.7-3.5s-4-.2-5.8.8c-1.7 1.1-3 2.7-3.5 4.7Zm5.997 7.398c1.5.4 3 .2 4.3-.6 1.3-.8 2.2-2 2.6-3.5.4-1.5.2-3-.6-4.3-.8-1.3-2-2.2-3.5-2.6-.5-.2-1-.2-1.4-.2-1 0-2 .3-2.9.8-1.3.8-2.2 2-2.6 3.5-.4 1.5-.2 3 .6 4.3.8 1.3 2 2.2 3.5 2.6Z" fill="#FFC412"/><path fill-rule="evenodd" clip-rule="evenodd" d="M323.502 265.001c.3-.5.2-1.1-.3-1.4l-16-10.7c-.5-.3-1.1-.2-1.4.3-.3.5-.2 1.1.3 1.4l16 10.7c.2.1.4.2.6.2.3 0 .7-.1.8-.5ZM70.096 96.6l-24.8-.7c-.4 0-.7.2-.9.6-.2.4-.1.8.2 1.1l24.1 25.5c.2.2.4.3.7.3.2 0 .3 0 .4-.1.3-.1.6-.5.6-.9l.7-24.8c0-.5-.4-1-1-1ZM68.5 120l.6-21.4-21.4-.6 20.8 22Z" fill="#03D5B7"/><path fill-rule="evenodd" clip-rule="evenodd" d="M150.8 157.9 124.2 119l-42 24.1-10.9 6.3 37 26c11.3-5.3 42.5-17.5 42.5-17.5Z" fill="#fff"/><path fill-rule="evenodd" clip-rule="evenodd" d="m123.798 120.696 25 36.6c-6.4 2.5-31.4 12.4-41.1 17-.6.3-.9 1-.6 1.7.2.4.7.7 1.2.7.2 0 .4-.1.6-.3 11-5.2 42.1-17.4 42.4-17.5.4-.1.7-.4.8-.8.1-.4 0-.8-.2-1.1l-26.6-38.9c-.4-.6-1.1-.7-1.7-.4l-52.9 30.3c-.6.4-.9 1.2-.5 1.8.4.6 1.2.9 1.8.5l51.8-29.6Z" fill="#142D6E"/><path fill-rule="evenodd" clip-rule="evenodd" d="M90.1 196.198c1.6.2 8.9-5 20.4-18.2l-31.9-37.8-8.5 5.2s-31.4-9-35.3-9.1c-3.9-.1-10.8 4.5-9.3 6.9 1.5 2.5 61.1 52.5 64.6 53Z" fill="#fff"/><path fill-rule="evenodd" clip-rule="evenodd" d="M24.499 143.897c1 1.7 20 17.8 31.8 27.6 20.5 17 31.9 25.8 33.7 26h.2c3 0 11.5-7.4 21.3-18.5.4-.5.4-1.2 0-1.7l-31.9-37.8c-.4-.5-1.2-.6-1.7-.3l-8.1 4.9c-5-1.5-31.3-8.9-35-9-3.3-.1-8.6 2.7-10.2 5.5-.9 1.6-.4 2.8-.1 3.3ZM26.8 141.9l-.2.6c2.3 3 58.8 50.5 63.7 52.4 1.3-.2 7.7-4.7 18.4-16.9l-30.4-36-7.6 4.6c-.3.2-.7.2-1 .1-12.6-3.6-32.2-8.9-35-9h-.1c-2.4 0-6.7 2.3-7.8 4.2Z" fill="#142D6E"/><path fill-rule="evenodd" clip-rule="evenodd" d="M90.098 196.198c1.3.2 8-5.2 17.2-15.5l-37.3-35.2s-31.4-9-35.3-9.1c-3.9-.1-10.7 4.4-9.2 6.8 1.5 2.5 61.1 52.5 64.6 53Z" fill="#fff"/><path fill-rule="evenodd" clip-rule="evenodd" d="M108.199 181.6c.4-.5.4-1.3-.1-1.8l-37.3-35.3c-.1-.1-.3-.2-.5-.3-3.2-.9-31.7-9-35.6-9.1-3.3-.2-8.6 2.7-10.2 5.5-.9 1.6-.4 2.8-.1 3.3 1 1.7 20 17.8 31.8 27.6 20.5 17 31.9 25.8 33.7 26h.2c3.2 0 12.9-9.9 18.1-15.9ZM90.2 194.9c1.4-.5 7-4.9 15.3-14l-36.1-34.2c-12.6-3.6-32-8.9-34.6-8.9-2.4 0-6.8 2.3-7.9 4.2-.2.2-.3.5-.3.5 2.3 3 58.2 49.9 63.6 52.4Z" fill="#142D6E"/><path fill-rule="evenodd" clip-rule="evenodd" d="M89.197 185.402c4.5 3.8 10.4-3.2 5.9-7-4.4-3.7-10.3 3.2-5.9 7Z" fill="#fff"/><path fill-rule="evenodd" clip-rule="evenodd" d="M93.902 187.502c2.1-.7 3.7-2.7 4.1-4.8.3-1.9-.4-3.8-2-5.2-1.6-1.4-3.6-1.8-5.5-1.1-2.1.7-3.7 2.7-4.1 4.8-.3 1.9.4 3.8 2 5.2 1.1.9 2.4 1.4 3.7 1.4.6 0 1.2-.1 1.8-.3ZM91.3 178.9c-1.2.4-2.2 1.6-2.4 2.8-.1.7-.1 1.8 1.1 2.8 1.1 1 2.2.9 2.9.6 1.2-.4 2.1-1.6 2.4-2.8.1-.7 0-1.8-1.1-2.8-.6-.7-1.3-.8-1.9-.8-.4 0-.7.1-1 .2ZM93.901 194.701c.4-.5.4-1.3-.2-1.8l-64.8-53.7c-.5-.4-1.3-.4-1.8.2-.4.5-.4 1.3.2 1.8l64.9 53.6c.2.2.5.3.8.3.4 0 .7-.1.9-.4Z" fill="#142D6E"/><path fill-rule="evenodd" clip-rule="evenodd" d="M43.105 153.799c10.8-2.2 10-12.5 10-12.6 0-.7-.7-1.3-1.4-1.2-.7 0-1.3.7-1.2 1.4 0 .3.6 8-7.9 9.8-.7.1-1.1.8-1 1.5.2.6.7 1 1.3 1 0 0 .1-.1.2.1Z" fill="#142D6E"/><path fill-rule="evenodd" clip-rule="evenodd" d="M124.604 67.4c64.2 42.699 96.8 110.599 96.8 110.599l57.1-46.8c-.1-18.1-9.6-35.3-19.3-51.9-9.7-16.6-16-16.3-16-16.3h-118.8c-4.9 2.7.3 4.3.2 4.4Z" fill="#00D6B9"/><path fill-rule="evenodd" clip-rule="evenodd" d="M256.9 138.798c-4.2 2.9-8 6.3-11.5 9.9-11.7 12.1-47.8 48.7-60.8 50.8 0 0 51.3 30.3 91.2 21 39.9-9.3 48.1-51 53.5-61.1 5.5-10 10.2-21.5 18.9-25.5 0 0-45.3-27.3-91.3 4.9Z" fill="#173B9C"/><path fill-rule="evenodd" clip-rule="evenodd" d="M81.1 239.699s.2 6 8.5 10.5 50.1 29.4 97.5 23.7c44.5-5.3 80.8-16.9 120.5-72.8 0 0-42.4 45.7-134.2-7.7-2.2-1.3-4.5-2.5-6.9-3.7-11.5-5.7-52-27.2-83.1-63.7 0 0-1.6-2.1-2.3 1.9v111.8Z" fill="#3470FF"/><path fill-rule="evenodd" clip-rule="evenodd" d="M247.7 95c-11.8-3.6-13.9-8-17.5-15.2L215.8 51s-2-10.6-2.5-17.6c-.5-7-2-7.4-2.6-7.4-.6 0-3.3 6.1-3.1 15.4 0 0-6 7-1.5 15.2l-11 9.5 4.6 1.9 13.6 35.4c2.2 5.6 7.5 9.6 13.5 10.1 14.2 1.2 38.7 3.7 39 3.4.3-.2 3.5-16.6 3.5-16.6L247.7 95Z" fill="#fff"/><path fill-rule="evenodd" clip-rule="evenodd" d="M227.004 112.7c-5.7-.5-10.5-4.2-12.6-9.5l-13.8-35.5c-.1-.3-.3-.5-.5-.6l-4.6-1.9c-.5-.2-1.1 0-1.3.5-.2.5 0 1.1.5 1.3l4.2 1.8 13.7 35.1c2.4 6 7.8 10.1 14.3 10.7 4.6.4 10.4 1 16 1.5 15.7 1.4 20.8 1.9 22.6 1.9.9 0 1-.1 1.1-.4.3-.2.5-.4 3.8-17.1.1-.6-.2-1.1-.7-1.2l-21.6-5.3c-11.3-3.4-13.3-7.3-16.8-14.4l-14.5-28.9c-.3-1.3-2.1-11-2.5-17.4-.4-5.7-1.5-8.3-3.6-8.3-.2 0-.6.1-.9.4-1 1-3.3 7-3.2 15.7-1.1 1.5-5.5 8.3-1.3 16 .3.5.9.7 1.4.4.5-.3.7-.9.4-1.4-4.1-7.4 1.1-13.7 1.3-14 .1-.2.2-.5.2-.7-.1-7.4 1.6-12.6 2.4-14.2.4.5 1.1 1.9 1.4 6.2.4 7 2.5 17.7 2.5 17.8 0 .1.1.2.1.3l14.5 29c3.5 7.1 5.8 11.8 18 15.5l20.7 5.2c-1.1 5.3-2.6 12.7-3.1 14.9-2.7-.1-12.9-1-22.1-1.9-5.6-.6-11.4-1.1-16-1.5Z" fill="#142D6E"/><path fill-rule="evenodd" clip-rule="evenodd" d="M189.896 59.8c-3.6 1.2-1.8 3.8-.9 4.5 1.7 1.3 7 2 10.5.6 3.6-1.3.5-4.3.5-4.3l-10.1-.8Z" fill="#fff"/><path fill-rule="evenodd" clip-rule="evenodd" d="M191 59.497c-.2-.5-.8-.8-1.3-.6-2.2.8-2.8 1.9-2.9 2.8-.3 1.5.8 2.9 1.6 3.5 1.3.9 3.8 1.5 6.5 1.5 1.8 0 3.5-.3 5.2-.7 1.6-.6 2.2-1.6 2.3-2.3.3-1.9-1.3-3.5-1.5-3.7-.4-.4-1-.4-1.4 0-.4.4-.4 1 0 1.4.3.3 1 1.2.9 1.8-.1.4-.7.7-1.1.9-3.2 1.2-8.1.6-9.6-.5-.3-.3-.9-1-.8-1.6.1-.6 1-1 1.5-1.2.5-.2.8-.8.6-1.3Z" fill="#142D6E"/><path fill-rule="evenodd" clip-rule="evenodd" d="M188.605 53.6c-4.9 1.6-2.5 5.1-1.3 6 2.3 1.7 9.3 2.6 14 .8 4.7-1.9.6-5.8.6-5.8l-13.3-1Z" fill="#fff"/><path fill-rule="evenodd" clip-rule="evenodd" d="M201.301 53.897c-.4.4-.4 1 0 1.4.4.4 1.5 1.7 1.3 2.7-.1.6-.6 1-1.6 1.4-4.4 1.7-11 .8-13.1-.7-.5-.3-1.4-1.4-1.3-2.4.2-.9 1.4-1.5 2.3-1.8.5-.2.8-.8.6-1.3-.2-.5-.8-.8-1.3-.6-2.7.9-3.4 2.3-3.6 3.4-.2 1.9 1.2 3.7 2.1 4.4 1.6 1.2 5 2 8.5 2 2.3 0 4.6-.4 6.6-1 1.6-.7 2.5-1.6 2.8-2.9.4-2.3-1.7-4.4-1.9-4.6-.4-.4-1-.4-1.4 0Z" fill="#142D6E"/><path fill-rule="evenodd" clip-rule="evenodd" d="M188.605 47.9c-4.9 1.6-2.5 5.1-1.3 6 2.3 1.7 9.3 2.7 14 .8 4.7-1.9.6-5.8.6-5.8l-13.3-1Z" fill="#fff"/><path fill-rule="evenodd" clip-rule="evenodd" d="M184.601 50.297c-.2 1.9 1.2 3.7 2.1 4.4 1.6 1.2 5 2 8.5 2 2.3 0 4.6-.3 6.6-1 1.6-.7 2.5-1.6 2.8-2.9.4-2.3-1.7-4.4-1.9-4.6-.4-.4-1-.4-1.4 0-.4.4-.4 1 0 1.4.4.4 1.5 1.7 1.3 2.7-.1.6-.6 1-1.6 1.4-4.4 1.7-11 .8-13.1-.7-.5-.3-1.4-1.4-1.3-2.4.2-.9 1.3-1.5 2.3-1.8.5-.2.8-.8.6-1.3-.2-.5-.8-.8-1.3-.6-2.7.9-3.4 2.3-3.6 3.4Z" fill="#142D6E"/><path fill-rule="evenodd" clip-rule="evenodd" d="M207.495 41.199c-10.4-2.2-20.2-.9-20.6 2.6-.5 3.5 2.6 4.3 2.6 4.3s14.2 3.1 13.9-1.6c-.3-4.7-11.6-3.6-11.6-3.6l15.7-1.7Z" fill="#fff"/><path fill-rule="evenodd" clip-rule="evenodd" d="M185.696 43.501c-.4 3.4 2 5 3.4 5.4 1.2.3 5.1 1.1 8.7 1.1 2.3 0 4.4-.3 5.4-1.4.7-.6 1.1-1.4 1-2.3-.1-1-.6-1.9-1.4-2.6-3-2.6-10.5-2-11.3-1.9-.5.1-1 .6-.9 1.1.1.5.5 1 1.1.9 2-.2 7.8-.3 9.8 1.4.5.3.7.7.7 1.2 0 .3-.1.5-.3.7-1.7 1.4-8.6.6-12.4-.2-.2-.1-2.2-.7-1.9-3.2.1-.3.3-.7.8-1 2.5-1.7 9.8-2.6 18.6-.7.6.1 1.1-.3 1.2-.8.1-.6-.3-1.1-.8-1.2-8.3-1.7-16.8-1.3-20.1 1.1-.9.7-1.5 1.5-1.6 2.4Z" fill="#142D6E"/><path fill-rule="evenodd" clip-rule="evenodd" d="M241.2 207.003c22.4 10.6 40.8 5.9 55.9-13.7l-34.5-27.5c-28.5-24.7-58.6-60-81.6-63.1-25-3.4-82.5 28.1-82.5 28.1l3.7 7.5 5.4 10.8 27 21c13.9-5.5 34.4-13.7 42.6-17.5.4-.2 34.7 40.6 64 54.4Z" fill="#fff"/><path fill-rule="evenodd" clip-rule="evenodd" d="M99.904 131.199c7.2-3.8 58.3-30.6 81-27.5 16.6 2.3 37.9 22.5 58.4 42 7.5 7 15.2 14.4 22.7 20.9l33.7 26.9c-14.7 18.7-32.4 22.8-54 12.6-16.2-7.7-36.8-25-61.1-51.5-3.1-3.3-3.1-3.3-3.8-3-8.1 3.7-27.6 11.6-42.6 17.5-.6.2-.8.8-.6 1.3.2.6.8.8 1.3.6 14.7-5.8 33.7-13.4 42.1-17.2.5.4 1.3 1.3 2.1 2.2 9.1 9.9 36.9 40.2 61.7 51.9 7.9 3.8 15.3 5.6 22.3 5.6 13.2 0 24.8-6.5 35-19.5.3-.4.2-1.1-.2-1.4l-34.5-27.5c-7.5-6.5-15.2-13.8-22.6-20.9-21.7-20.7-42.2-40.2-59.5-42.5-25-3.5-80.7 26.9-83.1 28.2-.5.2-.6.8-.4 1.3l9.1 18.3c.2.4.8.6 1.3.4.4-.2.6-.8.4-1.3l-8.7-17.4Z" fill="#142D6E"/><path fill-rule="evenodd" clip-rule="evenodd" d="M128.4 228.7c8.7-8.9 29.4-27.8 29.4-27.8l-38.4-27.4-31 37.1-8.1 9.6 44.3 12.9c0-.4 1.5-2.1 3.8-4.4Z" fill="#fff"/><path fill-rule="evenodd" clip-rule="evenodd" d="m80.995 220.895 38.5-46 36.7 26.1c-4.1 3.7-20.9 19.3-28.5 27-3.7 3.9-4.1 4.5-4.1 5.1 0 .6.4 1 1 1 .5 0 .9-.4.9-.7.2-.4 1.4-1.7 3.5-3.9 8.6-8.8 29.2-27.6 29.4-27.8.2-.2.3-.5.3-.8 0-.3-.2-.6-.4-.8l-38.4-27.4c-.4-.3-1-.2-1.3.2l-39.1 46.7c-.4.4-.3 1 .1 1.4.4.4 1 .3 1.4-.1Z" fill="#142D6E"/><path fill-rule="evenodd" clip-rule="evenodd" d="M253.7 154.9c-1.1.5-51.5-33.2-69.9-31.4-26.9 2.6-75 61.7-83.2 70.3l38.5 30.6s40.9-49.2 46.8-48.6c11.4 1.1 43.9 39.1 78.1 40.6 12.4.6 26.4-1.7 36.3-11.5 13.7-13.6 5.7-41.6 5.7-41.6l-42.7-14s-7.8 4.7-9.6 5.6Z" fill="#fff"/><path fill-rule="evenodd" clip-rule="evenodd" d="M138.6 225.298c.2.1.4.2.6.2.2 0 .5-.2.8-.4 19.8-23.8 42.2-48.2 45.8-48.2h.1c3.8.4 10.9 5.7 19 11.8 15.6 11.7 36.9 27.8 59.2 28.8 16 .7 28.4-3.3 37-11.8 14-13.9 6.3-41.4 6-42.6-.1-.3-.4-.6-.7-.7l-42.7-14c-.2-.1-.6-.1-.8.1-.1 0-7 4.2-9.2 5.4-1-.4-3.9-2.1-7.2-4.1-15.7-9.3-48.3-28.6-62.7-27.2-23.7 2.3-62.1 46-78.5 64.7-2.4 2.6-4.2 4.8-5.3 5.9-.2.2-.3.5-.3.8 0 .3.2.5.4.7l38.5 30.6Zm47.5-50.499c4.4.4 11.3 5.6 20 12.2 15.4 11.6 36.4 27.4 58.1 28.4 15.4.7 27.3-3.1 35.5-11.2 12.1-12.1 6.6-36.3 5.6-40.1l-41.8-13.7c-1.6 1-7.7 4.6-9.2 5.4-.7.4-.7.4-8.8-4.4-14.3-8.4-47.7-28.2-61.5-26.9-22.9 2.2-62.3 47.1-77.2 64-1.9 2.2-3.5 4-4.6 5.2l36.9 29.3c8.1-9.7 40.6-48.2 46.9-48.2h.1Z" fill="#142D6E"/><path fill-rule="evenodd" clip-rule="evenodd" d="M283.5 114.4c8.9-2.8 12.3-7.5 3.6-11.4-8.8-3.9-33-9.3-33-9.3l-8.9 25.2s29.4-1.7 38.3-4.5Z" fill="#fff"/><path fill-rule="evenodd" clip-rule="evenodd" d="M284.001 115.497c5.8-1.9 9.1-4.4 9.3-7.2.1-2.3-1.8-4.3-5.7-6.1-8.8-4-32.2-9.2-33.2-9.4-.5-.2-1 .1-1.2.6l-8.9 25.2c-.2.3-.1.6.1.9.2.3.5.4.8.4 1.2-.1 29.7-1.7 38.8-4.4ZM246.6 117.8c6.1-.4 29.1-1.9 36.6-4.3 4.8-1.5 7.8-3.6 7.9-5.4.1-1.3-1.5-2.8-4.5-4.2-7.6-3.4-27.5-8-31.9-9l-8.1 22.9Z" fill="#142D6E"/><path fill-rule="evenodd" clip-rule="evenodd" d="M247.5 151.5s16.6 28.7 60.9 25.1c0 0 1.1-29.3-1.8-53.5-3.1-25.9-16.7-22.9-22.1-20.3L267.8 115l-20.3 36.5Z" fill="#fff"/><path fill-rule="evenodd" clip-rule="evenodd" d="M300.9 177.905c2.4 0 4.9-.1 7.8-.2.5-.1.9-.5.9-1 0-.3 1.1-29.7-1.8-53.7-1.3-11.1-4.8-18.3-10.2-21.3-5.4-3-11.2-.9-13.4.2-.5.2-.7.8-.5 1.3.2.5.8.7 1.3.5 1.9-1 6.9-2.8 11.5-.3 4.8 2.6 7.9 9.3 9.2 19.8 2.6 21.5 2 47.4 1.8 52.5-39.3 2.9-56.3-20.6-58.7-24.2l20-36c.3-.5.1-1.1-.4-1.4-.5-.3-1.1-.1-1.4.4l-20.3 36.5c-.2.3-.2.7 0 1 .1.2 15.4 25.9 54.2 25.9Z" fill="#142D6E"/><path fill-rule="evenodd" clip-rule="evenodd" d="M118.205 257c1.5-.7 4.8-9 7.4-26.3l-41.7-14.2-9.9 8.6s-31.3 9.4-34.6 11.4c-3.3 2-6.8 9.3-4.2 10.6 2.6 1.3 79.8 11.3 83 9.9Z" fill="#fff"/><path fill-rule="evenodd" clip-rule="evenodd" d="M76.298 254.396c21.4 2.7 34.9 4 40.1 4 1.2 0 2-.1 2.4-.2 2.5-1.2 5.8-12.2 8.1-27.3.1-.6-.3-1.2-.9-1.4l-41.7-14.2c-.5-.2-.9-.1-1.3.2l-9.7 8.4c-4.2 1.3-31.3 9.4-34.6 11.4-2.9 1.8-5.8 7-5.7 10.2 0 1.8 1 2.5 1.6 2.8 1.8.9 26.5 4.2 41.7 6.1Zm41.399 1.304c.9-.9 3.9-8.1 6.5-24.2l-40-13.6-9.4 8.1c-.1.1-.3.2-.5.3-12.5 3.7-32 9.8-34.3 11.2-2.1 1.2-4.5 5.6-4.4 7.8 0 .3.1.5.2.6 3.6 1.3 76.8 10.9 81.9 9.8Z" fill="#142D6E"/><path fill-rule="evenodd" clip-rule="evenodd" d="M118.2 257c1.2-.6 4-8.7 6.2-22.3L73.9 225s-31.3 9.4-34.6 11.4c-3.3 2-6.7 9.4-4.1 10.7 2.6 1.3 79.8 11.3 83 9.9Z" fill="#fff"/><path fill-rule="evenodd" clip-rule="evenodd" d="M125.598 234.895c.2-.7-.3-1.4-1-1.5l-50.4-9.6c-.2-.1-.4-.1-.6 0-3.2 1-31.5 9.5-34.9 11.5-2.9 1.8-5.8 7-5.7 10.2 0 1.8 1 2.5 1.6 2.8 1.8.91 26.5 4.2 41.7 6.1 21.4 2.7 34.9 4 40.1 4 1.2 0 2-.1 2.3-.2 2.7-1.3 5.6-15.2 6.9-23.3Zm-8.001 20.905c.9-1.2 3.3-7.9 5.3-20l-48.9-9.4c-12.5 3.8-31.7 9.7-34 11.1-2.1 1.2-4.5 5.6-4.4 7.8 0 .3.1.5.2.6 3.5 1.2 75.9 10.7 81.8 9.9Z" fill="#142D6E"/><path fill-rule="evenodd" clip-rule="evenodd" d="M111.604 248.299c5.8.8 7-8.2 1.2-9-5.8-.8-7 8.2-1.2 9Z" fill="#fff"/><path fill-rule="evenodd" clip-rule="evenodd" d="M117.799 244.602c.4-2.9-1.2-6.1-4.9-6.6-2.1-.3-4 .4-5.2 2-1.3 1.7-1.6 4.2-.8 6.2.8 1.9 2.4 3.1 4.5 3.4.3.1.6.1.9.1 3.2 0 5.2-2.5 5.5-5.1Zm-8.001-3.002c-.8 1-1 2.5-.5 3.6.3.7.9 1.6 2.4 1.8 2.4.3 3.3-1.6 3.5-2.8.2-1.2-.2-3.3-2.6-3.6-.1-.1-.3-.1-.5-.1-1.2 0-1.9.6-2.3 1.1ZM120.598 253.597c.1-.8-.4-1.4-1.1-1.5l-83.5-10.3c-.8-.1-1.4.4-1.5 1.1-.1.8.4 1.4 1.1 1.5l83.5 10.3h.2c.7 0 1.2-.5 1.3-1.1Z" fill="#142D6E"/><path fill-rule="evenodd" clip-rule="evenodd" d="M55.495 246.403c7.9-7.7 1.7-15.9 1.6-16-.4-.5-1.2-.6-1.8-.2-.5.4-.6 1.2-.2 1.8.3.2 4.9 6.4-1.3 12.5-.5.5-.5 1.3 0 1.8.2.3.6.4.9.4.4 0 .7-.1.8-.3Z" fill="#142D6E"/><path fill-rule="evenodd" clip-rule="evenodd" d="M304.304 82.305s10.4-16.3-1.7-25.3c-12-9-20.7-5.6-25.6 1.1-4.9 6.7-13 18.6-8.3 27 3.2 5.5 7.7 5.9 10.3 6.6l-.6 9.3s-1.3 9.4 4.2 12.6c6 2.9 10.7-2.9 10.7-2.9l2.7-22.3s6.7 2.9 8.4-2.3c0 0 .9-2.2-.1-3.8Z" fill="#fff"/><path fill-rule="evenodd" clip-rule="evenodd" d="M303.202 56.201c-5.9-4.4-11.4-6.3-16.5-5.5-4.1.7-7.7 3-10.5 6.8-6.3 8.7-13 19.8-8.3 28.1 2.9 5.2 7 6.1 9.7 6.8.2 0 .3.1.4.1l-.6 8.4c-.1.4-1.4 10 4.7 13.6 1.4.6 2.7.9 3.9.9 3.7 0 6.7-2.4 8.1-4.1.1-.1.2-.3.2-.5l2.5-21.1c1.4.4 3.7.8 5.7-.1 1.3-.6 2.3-1.7 2.8-3.2.1-.1.9-2.2.1-4.1 1.7-2.9 9.2-17.6-2.2-26.1ZM277.801 58.7c-3.5 4.8-12.9 17.6-8.2 25.9 2.5 4.4 5.9 5.2 8.5 5.8l1.2.3c.5.1.7.6.7 1l-.6 9.3c0 .2-1.2 8.8 3.7 11.6 4.6 2.3 8.4-1.4 9.3-2.4l2.6-22c0-.3.2-.6.5-.7.3-.2.6-.2.9-.1 0 0 3.2 1.3 5.3.4.8-.4 1.4-1.1 1.8-2.1 0-.1.7-1.8 0-2.9-.2-.3-.2-.8 0-1.1.4-.6 9.7-15.6-1.4-23.9-4.7-3.4-9.1-5.2-13.1-5.2-.7 0-1.3 0-2 .1-4.5.7-7.5 3.6-9.2 6Z" fill="#142D6E"/><path fill-rule="evenodd" clip-rule="evenodd" d="M258.1 70.6s3.6 8.9 9.4 11.9c-.02-.11-1.03-9.5 5.4-18.8l-14.8 6.9ZM294.5 59.698s-7.5 13 1.7 17.8c0 0-4.5 4-2.9 6.1 1.5 2 3.9 1.9 8.8-2.6 0 0 1.1.7 1.5 1.6 1.1 2.5 2 7.2-7.2 6.1l-1.7 9.4s11.5 9.2 21.3 6.1c0 0 19.8-45.5-11.2-53.9.1-.1-14.4-13.6-29.6 3.6 0 0 7.7 10.4 19.3 5.8Z" fill="#142D6E"/><path fill-rule="evenodd" clip-rule="evenodd" d="M297.643 88.616a3.397 3.397 0 0 0 1.892 4.42 3.396 3.396 0 0 0 4.42-1.893 3.397 3.397 0 0 0-1.892-4.42 3.396 3.396 0 0 0-4.42 1.893Z" fill="#FFC412"/><path fill-rule="evenodd" clip-rule="evenodd" d="M271.056 62.192a4.695 4.695 0 0 0 2.616 6.11 4.696 4.696 0 0 0 6.111-2.616 4.695 4.695 0 0 0-2.617-6.11 4.694 4.694 0 0 0-6.11 2.616Z" fill="#fff"/><path fill-rule="evenodd" clip-rule="evenodd" d="M277.605 69.205c1.4-.6 2.5-1.7 3.1-3.1 1.2-2.9-.3-6.2-3.2-7.4-2.9-1.2-6.2.3-7.4 3.2-1.2 2.9.3 6.2 3.2 7.4.7.3 1.4.4 2.1.4.7 0 1.5-.2 2.2-.5Zm-5.702-6.705c-.8 1.9.2 4.1 2.1 4.8.9.4 1.9.4 2.8 0 .9-.4 1.6-1.1 2-2 .8-1.9-.2-4.1-2.1-4.8-.4-.2-.9-.3-1.3-.3-1.5 0-2.9.9-3.5 2.3Z" fill="#142D6E"/><path fill-rule="evenodd" clip-rule="evenodd" d="M272.15 63.059c-.11.65.332 1.273.983 1.383a1.203 1.203 0 0 0 1.383-.983 1.203 1.203 0 0 0-.983-1.383 1.203 1.203 0 0 0-1.383.983ZM272.799 60.599c.5-.2.7-.8.4-1.3l-1.2-2.3c-.2-.5-.8-.7-1.3-.4-.5.2-.7.8-.4 1.3l1.2 2.3c.2.3.5.5.9.5.2 0 .3 0 .4-.1ZM275.5 59.3v-3.4c0-.6-.5-1-1-1-.6 0-1 .4-1 1v3.4c0 .6.5 1 1 1 .6 0 1-.4 1-1Z" fill="#142D6E"/><path fill-rule="evenodd" clip-rule="evenodd" d="M281.869 69.724a4.695 4.695 0 0 0 2.616 6.11 4.696 4.696 0 0 0 6.111-2.616 4.695 4.695 0 0 0-2.617-6.11 4.694 4.694 0 0 0-6.11 2.616Z" fill="#fff"/><path fill-rule="evenodd" clip-rule="evenodd" d="M291.604 73.697c.5-1.4.5-3-.1-4.4-.6-1.4-1.7-2.5-3.1-3.1-1.4-.5-3-.5-4.4.1-1.4.6-2.5 1.7-3.1 3.1-1.2 2.9.3 6.2 3.2 7.4.7.3 1.4.4 2.1.4 2.3 0 4.4-1.4 5.4-3.5ZM284.702 68c-.9.4-1.6 1.1-2 2-.8 1.9.2 4.1 2.1 4.8 1.9.8 4.1-.2 4.8-2.1.4-.9.4-1.9 0-2.8-.4-.9-1.1-1.6-2-2-.5-.1-.9-.2-1.4-.2-.5 0-1 .1-1.5.3Z" fill="#142D6E"/><path fill-rule="evenodd" clip-rule="evenodd" d="M282.903 70.099c-.11.65.333 1.273.983 1.383a1.204 1.204 0 0 0 1.384-.983 1.204 1.204 0 0 0-.984-1.384 1.204 1.204 0 0 0-1.383.984ZM291.897 71.497l2.4-.8c.5-.2.8-.8.6-1.3-.2-.5-.8-.8-1.3-.6l-2.4.8c-.5.2-.8.8-.6 1.3.1.4.5.7.9.7.1 0 .2 0 .4-.1ZM290.9 69.5l2.3-2.4c.4-.4.4-1 0-1.4-.4-.4-1-.4-1.4 0l-2.3 2.4c-.4.4-.4 1 0 1.4.2.2.4.3.7.3.3 0 .6-.1.7-.3Z" fill="#142D6E"/><path fill-rule="evenodd" clip-rule="evenodd" d="M277.803 68.7s-2.4-.4-2.7.8c-.3 1.2.4 2.1 2 2.4l3.6-6.8-2.9 3.6Z" fill="#fff"/><path fill-rule="evenodd" clip-rule="evenodd" d="M277.799 69.795c.3 0 .7-.1.9-.4l2.9-3.6c.4-.4.3-1-.1-1.4-.4-.4-1-.3-1.4.1l-2.6 3.1c-1.4 0-2.9.3-3.3 1.6-.2.8-.2 1.5.2 2.1.4.7 1.3 1.3 2.5 1.6h.2c.4 0 .8-.3 1.2-.6.2-.5-.2-1.1-.7-1.2-.7-.2-1.1-.4-1.3-.7-.1-.1-.1-.3-.1-.5.1-.1 1-.2 1.6-.1ZM291.905 66.503c.4-.3.5-.9.2-1.4-2.3-3.3-5.7-2.8-5.8-2.8-.5 0-.9.6-.8 1.1 0 .5.6.9 1.1.8 0 0 2.3-.3 3.9 2 .2.3.5.4.8.4.2 0 .4-.1.6-.1ZM282.305 60.403c.4-.3.5-.9.2-1.4-2.3-3.3-5.7-2.8-5.8-2.8-.5.1-.9.6-.8 1.1.1.6.6 1 1.1.9.1 0 2.3-.2 3.9 2 .2.3.5.4.8.4.2 0 .5-.1.6-.2ZM275.497 76.697c-.2.1-.4.1-.7 0-.1 0-.2 0-.2-.1-.2-.4 0-1.1.1-1.5.2-.5-.1-1.1-.6-1.3-.5-.2-1.1.1-1.3.6-.1.2-.7 1.8-.1 3 .3.6.7 1 1.3 1.2.3.1.7.2 1 .2.4 0 .9-.1 1.5-.3 1-.5 1.8-1.6 2.2-2.9.1-.6-.2-1.1-.7-1.3-.6-.1-1.1.2-1.3.7-.2.8-.7 1.5-1.2 1.7Z" fill="#142D6E"/><path fill-rule="evenodd" clip-rule="evenodd" d="m306.9 51.8 1-1.1-2.3-1.6-1.7.3 3 2.4Z" fill="#E2A40A"/><path fill-rule="evenodd" clip-rule="evenodd" d="M302.7 80.996s12.4-4.7 12.3-26.8c.1-.1-1.5-6.3-9.4-5.1 0 0 10.5 17-2.9 31.9Z" fill="#FFC412"/><path fill-rule="evenodd" clip-rule="evenodd" d="M371.705 191.699c.5-4.7-24.3-9.801-26.9-11.9h-.1c-3.1-2.6-5.6-5.901-7.4-9.5-6.7-13.5-25.7-51.6-36.3-65.8-4.8-6.5-12.8-3.4-11.8 3.3 3 20.4 22.9 71.4 26.7 82.3.8 4.7 3.6 12.7 5.7 14 2.3 1.4 14.1 1.1 20 1.1 4.9 0 6.5-1.2 6.9-2.7 3.5 1 6.8 1.8 8.4 2.1 4.1.8 13.8 3.2 15.2-.3.6-1.6-2-3.2-2-3.2s4.1 1.2 4.7-.8c.7-2.2-2.5-3.5-2.5-3.5s2.5.5 2.6-1.4c0-1.3-1.4-2.3-3.4-3.2.1-.1.2-.301.2-.5Z" fill="#fff"/><path fill-rule="evenodd" clip-rule="evenodd" d="m374.799 197.603.1-.1c.4-.3.9-.8.9-1.8 0-1.5-1-2.7-3.2-3.8.3-3.6-7.8-6.4-19.2-9.9-3.6-1.2-7.3-2.3-8.1-2.9-3-2.4-5.4-5.5-7.2-9.2-21-42.3-31.4-59.2-36.4-66-2.6-3.5-6.4-4.9-9.7-3.5-2.8 1.1-4.4 4.1-3.9 7.6 2.5 17.1 16.7 55.4 23.5 73.8 1.4 3.8 2.5 6.8 3.2 8.7.8 4.3 3.5 13 6.2 14.6 2 1.2 9.2 1.2 17.8 1.2h2.7c2.7 0 6.2-.3 7.5-2.5 3.8 1 6.3 1.7 7.6 1.9l1.5.3c2.7.6 6.3 1.3 9.2 1.3 2.7 0 4.9-.6 5.6-2.3.3-.8.2-1.6-.2-2.2 1.2-.1 2.5-.6 2.9-1.9.5-1.4 0-2.5-.8-3.3Zm-1-1.806s.1-.099.1-.299c0-.601-1-1.5-2.8-2.3-.3-.1-.5-.401-.6-.7-.1-.3 0-.601.2-.9.3-2.301-12.4-6.201-17.8-7.9-4.9-1.5-7.7-2.401-8.7-3.2l-.1-.101c-3.1-2.6-5.7-6-7.7-9.899-20.9-42.1-31.2-59-36.2-65.7-2.5-3.3-5.5-3.6-7.3-2.8-2 .8-3.1 3-2.7 5.5 2.4 16.9 16.6 54.999 23.4 73.399 1.4 3.9 2.6 6.9 3.2 8.801v.199c.9 5.201 3.8 12.4 5.3 13.3 1.7 1 11.5 1 16.8 1h2.7c5.5 0 5.8-1.4 5.9-1.9.1-.3.2-.5.5-.6h.7c4.2 1.1 7 1.8 8.3 2.1.4.1 1 .2 1.5.3 3.5.7 11.7 2.4 12.6 0 .2-.5-.8-1.4-1.6-1.9-.4-.3-.6-.8-.4-1.3.2-.5.7-.7 1.2-.6 1.3.4 3.2.5 3.5-.2.4-1.399-1.9-2.3-1.9-2.3-.5-.199-.7-.699-.6-1.199.1-.5.7-.801 1.2-.701.4.101 1.1.101 1.3-.1Z" fill="#142D6E"/><path fill-rule="evenodd" clip-rule="evenodd" d="M372.405 192.804c.1-.6-.2-1.1-.7-1.3-.4-.1-10-3.1-14.5-3.4-.6-.1-1.1.3-1.1.9-.1.6.3 1.1.9 1.1 4.3.2 14 3.3 14.1 3.3h.3c.5 0 .9-.3 1-.6ZM373.204 197.304c.2-.5 0-1.1-.5-1.3-.3-.1-5.5-2.4-12.2-2.8-.6-.1-1.1.3-1.1.9-.1.6.3 1.1.9 1.1 6.3.4 11.4 2.7 11.5 2.7.1.1.3.1.4.1.4 0 .8-.2 1-.7ZM370.604 201.705c.3-.5.1-1.1-.4-1.4-.2-.1-4.8-2.6-14.7-3.3-.6-.1-1.1.3-1.1.9-.1.6.3 1.1.9 1.1 9.4.7 13.8 3.1 13.9 3.1.2.1.3.1.5.1.3 0 .6-.2.9-.5ZM347.6 201.898c-.1.5.3 1.1.8 1.2h.2c.5 0 .9-.4.9-.7 0-.2.3-1.7-.9-3.1-1.6-1.9-5-2.7-10.2-2.4-.5.1-.9.5-.9 1.1.1.5.5.9 1.1.9 5.8-.4 7.8.8 8.5 1.6.6.7.5 1.3.5 1.4Z" fill="#142D6E"/><path fill-rule="evenodd" clip-rule="evenodd" d="M291.803 101.399c-12.1 3.3-.3 37.3-.3 37.3 12.2-2.3 25.4-13.7 25.4-13.7s-13-26.9-25.1-23.6Z" fill="#fff"/><path fill-rule="evenodd" clip-rule="evenodd" d="M291.798 139.602c12.3-2.3 25.3-13.4 25.8-13.9.3-.3.4-.8.2-1.2-.6-1.2-13.6-27.7-26.3-24.2-1.9.6-3.5 1.8-4.5 3.8-5.1 9.6 3.2 33.8 3.6 34.8.1.4.5.7.9.7h.3Zm.204-37.302c-1.4.4-2.5 1.3-3.3 2.8-4.2 7.9 2 28.1 3.4 32.4 10.1-2.2 20.8-10.6 23.5-12.8-1.9-3.9-12.1-22.7-21.7-22.7-.6 0-1.3.1-1.9.3Z" fill="#142D6E"/><path fill-rule="evenodd" clip-rule="evenodd" d="M356.7 91.202c-3.3-3-8 2-8 2s.8-6.7-3.7-7.3c-4-.6-6.5 4.5-5.5 8.9.7 3.4 2.1 6.6 4.2 9.3 3.4-.2 6.8-1.2 9.8-2.8 4-2.2 6.2-7.3 3.2-10.1Z" fill="#FFC727"/></g></svg>
